<svg xmlns="http://www.w3.org/2000/svg" viewBox="0 0 16 16"><defs><style>.cls-1{fill:#ef474c;}.cls-1,.cls-2,.cls-3,.cls-4,.cls-5{fill-rule:evenodd;}.cls-2{fill:#ef3b39;}.cls-3{fill:#231f20;}.cls-4{fill:#fff;}.cls-5{fill:none;}</style></defs><g id="Layer_2" data-name="Layer 2"><g id="Layer_1-2" data-name="Layer 1"><path class="cls-1" d="M8,0V1H1V4H0V0Z"/><path class="cls-2" d="M8,2H2V4H1V6H7V8H6V7H5V8H3V7H2V9H3v3H4v1H5v1H7V13H6V12H9v1H8v1H9v1h1V14h1V13h1V12h2V10h1V8h1V6H15V5H3V3H9V4h5V2H11V1H8Z"/><path class="cls-2" d="M0,12v4H5V15H2V14H1V12Z"/><path class="cls-2" d="M12,15v1h4V15Z"/><path class="cls-3" d="M6,11H5v1H6Z"/><path class="cls-3" d="M6,10v1h4V10H9V9H7v1Z"/><path class="cls-3" d="M10,12V11h1v1Z"/><path class="cls-3" d="M10,8H9V6h2V7H10Z"/><path class="cls-4" d="M12,6H11V7h1Z"/><path class="cls-3" d="M13,6H12V7h1Z"/><path class="cls-4" d="M14,6H13V7h1Z"/><path class="cls-3" d="M11,8V7h1V8Z"/><path class="cls-4" d="M11,9V8h1V9Z"/><path class="cls-4" d="M13,8V7H12V8Z"/><path class="cls-4" d="M14,8H13V9h1Z"/><path class="cls-5" d="M7,15v1H9V15Z"/><path class="cls-5" d="M0,9H1V6H0Z"/><path class="cls-4" d="M7,4H3V5H8V4H9V3H7Z"/><path class="cls-5" d="M16,1H12V0h4Z"/><path class="cls-3" d="M0,4V6H1V4Z"/><path class="cls-3" d="M1,9V6H7V8H6V7H5V8H3V7H2V9H3v3H4v1H5v1H7V13H6V12H9v1H8v1H9v1H7v1H5V15H2V14H3V13H2v1H1V12H0V9Z"/><path class="cls-5" d="M2,13v1H3V13Z"/><path class="cls-3" d="M3,4H7V3H3V4"/><path class="cls-3" d="M16,6V1H12V0H8V1h3V2h3V4H8V5h7V6Z"/><path class="cls-5" d="M16,0H12V1h4Z"/><path class="cls-5" d="M16,10H15v1h1Z"/><path class="cls-5" d="M15,12H14v2h1Z"/><path class="cls-4" d="M13,14V13h1v1Z"/><path class="cls-4" d="M12,13V12h1v1Z"/><path class="cls-3" d="M1,4V1H8V2H2V4Z"/><path class="cls-3" d="M9,16V15h1V14h1V13h2v1h2V12H14V10h1v1h1v4H12v1Z"/><path class="cls-5" d="M16,8H15v2h1Z"/><path class="cls-3" d="M13,12v1h1V12H13"/></g></g></svg>